<?xml version="1.0" standalone="no"?>
<svg viewBox="0 0 1024 1024" version="1.1" xmlns="http://www.w3.org/2000/svg">
<path d="M62.593887 557.945513s-62.993848 40.396055 56.494483 46.79543c4.29958 0 19.498096 70.193145 21.697881 85.091691-2.199785 2.099795-4.29958 6.399375-4.29958 12.79875 0 12.79875 17.398301 23.397715 39.096182 23.397715h12.998731c-28.197246 4.29958-47.795332 14.898545-47.795333 29.79709 0 10.598965 12.998731 23.397715 32.596817 31.896885 0 0-23.897666 76.59252 10.898936 93.59086 6.499365 2.099795 15.198516 4.29958 23.897666 2.099795 52.094913 2.099795 143.385997 0 195.48091 0l26.097451 140.486281h462.654819l-45.595547-325.568206c82.491944-114.88878 110.789181-217.078801 110.789181-302.170492 6.499365-10.598965 6.499365-23.397715 6.499365-36.196465C963.905869 162.184162 779.323894 2.499756 551.246167 2.499756c-115.088761 0-217.178791 40.396055-293.17137 104.289815-45.595547 34.09667-84.691729 78.692315-104.289815 134.086906-12.998731 31.896885-23.897666 76.59252-23.897666 110.68919 0 42.59584 21.697881 87.291475 2.199785 127.687531-12.998731 29.79709-47.795332 55.2946-69.493214 78.692315z m403.960551-342.566546c43.395762 0 80.392149 21.29792 102.09003 53.194805l67.293429-38.29626c0-4.29958-2.199785-10.598965-2.199785-14.898545 0-44.695635 36.896397-82.991895 84.691729-82.991895 45.595547 0 84.691729 36.196465 84.691729 82.991895s-36.896397 82.991895-82.491944 82.991895c-32.596817 0-62.993848-19.198125-75.992579-46.79543l-62.993848 36.196465c8.69915 16.99834 12.998731 34.09667 12.99873 53.194805 0 25.49751-8.69915 48.895225-21.697881 68.093351l117.288546 65.993555c6.499365-6.399375 17.398301-12.79875 28.197247-12.79875 23.897666 0 41.295967 19.198125 41.295967 40.396055 0 23.397715-19.498096 40.396055-41.295967 40.396055-23.897666 0-41.295967-19.198125-41.295967-40.396055 0-4.29958 2.199785-8.49917 2.199785-10.598965l-121.588126-68.09335c-23.897666 23.397715-54.294698 38.29626-91.191095 38.29626-69.493214 0-125.987697-55.2946-125.987696-123.38795 0-68.19334 56.494483-123.487941 125.987696-123.487941z" fill="currentColor"/>
</svg>
