<?xml version="1.0" standalone="no"?><!DOCTYPE svg PUBLIC "-//W3C//DTD SVG 1.1//EN" "http://www.w3.org/Graphics/SVG/1.1/DTD/svg11.dtd"><svg t="1763618054715" class="icon" viewBox="0 0 1024 1024" version="1.1" xmlns="http://www.w3.org/2000/svg" p-id="52828" xmlns:xlink="http://www.w3.org/1999/xlink" width="200" height="200"><path d="M339.904 243.392c0 99.072 77.056 179.392 172.096 179.392s172.096-80.32 172.096-179.392S607.04 64 512 64s-172.096 80.32-172.096 179.392z m264.192 208.128l-92.096 128-92.096-128c-107.264 40.256-184.128 148.224-184.128 275.584v174.4h0.448C241.344 933.952 362.688 960 512 960s270.656-26.048 275.904-58.56h0.384v-174.336c-0.064-127.36-76.928-235.328-184.192-275.584z m-64.64-15.68a251.392 251.392 0 0 0-26.496-1.344h-0.128c-8.768 0-17.408 0.448-25.984 1.28 0 0-1.344 19.328 10.176 33.088 0 0 21.12 0.448 31.68-0.256 0 0 11.456-12.16 10.752-32.768z m-42.752 38.08h31.616l14.208 50.048-30.016 36.352-31.168-36.352zM207.68 571.2l22.528-27.328-10.688-37.504h-23.68l-11.584 37.504z m68.672-81.664L207.296 585.6l-69.12-96.064C57.728 519.744 0 600.768 0 696.32v130.816h0.384c3.84 24.384 94.848 44.032 206.912 44.032 0.96 0 1.856-0.128 2.752-0.128v-144c0-88.768 34.368-168.896 89.728-226.752a204.096 204.096 0 0 0-23.424-10.752zM219.84 502.4s8.576-9.152 8.064-24.64a206.528 206.528 0 0 0-39.424 0s-1.024 14.592 7.616 24.896c-0.064 0 15.808 0.256 23.744-0.256z m-141.696-169.024c0 74.336 57.824 134.592 129.152 134.592s129.152-60.256 129.152-134.592c0-74.336-57.824-134.592-129.152-134.592s-129.152 60.256-129.152 134.592zM829.248 502.4s8.64-9.152 8.064-24.64a205.536 205.536 0 0 0-39.552 0s-1.024 14.592 7.616 24.896c0.128 0 16 0.192 23.872-0.256z m-12.096 68.8l22.464-27.328-10.688-37.504h-23.68l-11.52 37.504z m-129.536-237.824c0 74.336 57.824 134.592 129.152 134.592s129.152-60.256 129.152-134.592c0-74.336-57.824-134.592-129.152-134.592s-129.152 60.256-129.152 134.592z m198.272 156.16l-69.12 96.064-69.12-96.064c-8 3.072-15.744 6.656-23.36 10.688 55.36 57.92 89.664 138.048 89.728 226.752v144h2.752c112 0 203.008-19.52 206.848-43.968H1024V696.32c0-95.552-57.728-176.576-138.112-206.784z" p-id="52829"></path></svg>