<?xml version="1.0" standalone="no"?><!DOCTYPE svg PUBLIC "-//W3C//DTD SVG 1.1//EN" "http://www.w3.org/Graphics/SVG/1.1/DTD/svg11.dtd"><svg t="1763618336392" class="icon" viewBox="0 0 1170 1024" version="1.1" xmlns="http://www.w3.org/2000/svg" p-id="66443" xmlns:xlink="http://www.w3.org/1999/xlink" width="228.515625" height="200"><path d="M949.28083 579.022482c3.609951-16.823733 6.26633-33.78369 7.832912-50.879872 97.196222-11.919649 142.354663-76.694426 130.979912-187.581216l-1.770919-17.164294-17.02807 1.770919c-54.421711 5.585207-95.629639 34.66915-117.970467 78.942131a436.735932 436.735932 0 0 0-13.622455-53.059465c79.282693-53.059465 91.270454-130.298789 34.66915-223.953173l-8.922709-14.780364-14.64414 9.058933c-42.502062 26.359452-66.95437 65.387788-71.926566 109.660769a432.78542 432.78542 0 0 0-29.083943-35.895171c22.749501-96.446987-21.727817-161.970999-128.664095-189.692697L702.578156 1.157909l-4.222961 16.75562c-21.795929 86.025808 23.90741 160.744978 114.224291 189.828921a398.72928 398.72928 0 0 1 82.688307 126.825064c82.892643 203.451377-12.941333 436.259146-214.145005 520.105361l13.077558 31.944659c24.316084-10.14873 47.678595-22.477052 69.610749-36.916856 31.331648 23.226287 62.527072 34.941599 92.905148 34.9416h7.7648c43.864308-3.133165 85.140349-30.105627 122.942663-80.849275l10.216842-13.826793-13.622456-10.421179a144.806705 144.806705 0 0 0-112.38526-30.854862c7.356126-9.808168 14.303579-19.752561 20.774245-30.037515l6.470667 1.021684c10.897965 1.702807 21.864042 2.588267 32.89823 2.588267 26.359452 0.681123 52.31023-6.26633 74.923507-20.02501 37.05308-23.498736 60.619928-67.226819 70.087535-129.958228l2.520154-17.096182-16.891845-2.724491a144.738593 144.738593 0 0 0-113.134495 26.563788M274.833045 763.606758a401.658108 401.658108 0 0 1 2.247705-554.570174c90.521219-28.947719 136.428895-103.803113 114.428629-189.897034l-4.222962-16.823733-16.551283 4.291074c-107.00439 27.653585-151.413596 93.313822-128.732207 189.692697a432.240521 432.240521 0 0 0-29.015831 35.963283c-4.904084-44.409206-29.356392-83.573766-71.926567-109.933218l-14.576027-9.058933-8.922709 14.780364c-56.669416 93.790608-44.681655 170.96182 34.601038 224.021285-5.789544 17.64108-10.353066 35.418385-13.826793 53.263802-22.272715-44.136757-63.548756-73.152587-117.834242-78.874019l-17.02807-1.839031-1.702807 17.232406c-11.579087 110.750565 34.056139 175.525343 130.775576 187.581216 1.702807 17.02807 4.359186 33.988027 7.969136 50.607424a144.738593 144.738593 0 0 0-112.862046-26.29134l-16.891845 2.588267 2.520154 17.096182c9.467607 62.731409 33.034455 106.731941 70.087535 130.094452 22.477052 13.622456 48.359718 20.569908 74.651058 19.888786 11.102301 0 22.136491-0.817347 33.102567-2.520155l6.402555-1.021684c6.402554 10.216842 13.281894 20.229347 20.569908 29.969403a144.806705 144.806705 0 0 0-112.180923 30.854862l-13.622456 10.421179 10.216842 13.826792c38.142876 50.675535 79.350805 77.920447 123.010775 80.917388h7.628575c30.446189 0 61.709725-11.783424 93.041373-34.805375 21.591592 14.099242 44.749767 26.427564 69.474525 36.780631l13.009445-32.012771a393.757084 393.757084 0 0 1-133.840628-92.224026" fill="#68737A" p-id="66444"></path><path d="M306.505255 671.178396V308.548623h476.785952V671.178396H645.704403a102.849541 102.849541 0 0 0-100.601835-120.831183 102.849541 102.849541 0 0 0-100.806173 120.831183H306.505255z m326.870826 34.532925H817.347346V273.607024H272.449115v432.104297h184.039378c5.448982 9.535719 12.26021 18.117866 20.297459 25.40588v223.612611l68.112279-69.06585 68.112279 69.06585V731.117201c8.037249-7.288014 14.916589-15.870161 20.365571-25.40588z" fill="#68737A" p-id="66445"></path><path d="M408.673673 445.04563h272.449115v-34.05614H408.673673zM476.785952 513.157909h136.224558v-34.05614H476.785952z" fill="#68737A" p-id="66446"></path></svg>