<?xml version="1.0" standalone="no"?><!DOCTYPE svg PUBLIC "-//W3C//DTD SVG 1.1//EN" "http://www.w3.org/Graphics/SVG/1.1/DTD/svg11.dtd"><svg t="1764483240761" class="icon" viewBox="0 0 1117 1024" version="1.1" xmlns="http://www.w3.org/2000/svg" p-id="2527" xmlns:xlink="http://www.w3.org/1999/xlink" width="218.1640625" height="200"><path d="M864.667826 1024h-109.300869a33.391304 33.391304 0 0 1 0-66.782609h109.300869a97.892174 97.892174 0 0 0 97.78087-97.780869V422.288696a33.391304 33.391304 0 0 1 66.782608 0v437.203478A164.730435 164.730435 0 0 1 864.667826 1024zM362.295652 1024H252.994783a164.730435 164.730435 0 0 1-164.563479-164.563478V422.288696a33.391304 33.391304 0 0 1 66.782609 0v437.203478A97.892174 97.892174 0 0 0 252.994783 957.217391H362.295652a33.391304 33.391304 0 1 1 0 66.782609z" p-id="2528"></path><path d="M755.70087 1024a33.391304 33.391304 0 0 1-33.391305-33.391304v-248.653913a67.784348 67.784348 0 0 0-67.728695-67.728696H463.304348a67.784348 67.784348 0 0 0-67.728696 67.728696V990.608696a33.391304 33.391304 0 0 1-66.782609 0v-248.653913a134.622609 134.622609 0 0 1 134.511305-134.511305h191.276522a134.622609 134.622609 0 0 1 134.511304 134.511305V990.608696a33.391304 33.391304 0 0 1-33.391304 33.391304zM1084.438261 537.989565a33.391304 33.391304 0 0 1-23.596522-9.794782l-432.806956-432.751305a97.78087 97.78087 0 0 0-138.24 0L56.987826 528.194783a33.391304 33.391304 0 0 1-47.026087-47.193044L442.546087 48.194783a164.563478 164.563478 0 0 1 232.681739 0l432.806957 432.806956a33.391304 33.391304 0 0 1-23.596522 56.987826z" p-id="2529"></path></svg>