<?xml version="1.0" standalone="no"?><!DOCTYPE svg PUBLIC "-//W3C//DTD SVG 1.1//EN" "http://www.w3.org/Graphics/SVG/1.1/DTD/svg11.dtd"><svg t="1763618544829" class="icon" viewBox="0 0 1024 1024" version="1.1" xmlns="http://www.w3.org/2000/svg" p-id="75491" xmlns:xlink="http://www.w3.org/1999/xlink" width="200" height="200"><path d="M810.520381 912.749714A461.263238 461.263238 0 0 1 524.190476 1011.809524c-112.323048 0-215.332571-39.984762-295.521524-106.496 7.484952-4.144762 14.628571-8.825905 21.406477-14.019048A437.00419 437.00419 0 0 0 524.190476 987.428571a436.906667 436.906667 0 0 0 262.582857-87.186285c7.533714 4.754286 15.481905 8.94781 23.747048 12.507428z m171.349333-292.156952c-7.094857-5.461333-14.628571-10.386286-22.528-14.701714 2.438095-18.773333 3.705905-37.888 3.705905-57.319619 0-186.806857-116.711619-346.35581-281.209905-409.697524a172.714667 172.714667 0 0 0 0.609524-25.795048C860.355048 177.737143 987.428571 348.306286 987.428571 548.571429c0 24.502857-1.901714 48.542476-5.558857 72.021333z m-917.382095-14.604191A467.846095 467.846095 0 0 1 60.952381 548.571429C60.952381 357.668571 176.420571 193.731048 341.333333 122.831238c0.048762 8.752762 0.731429 17.334857 2.072381 25.721905C191.21981 217.478095 85.333333 370.663619 85.333333 548.571429c0 15.847619 0.828952 31.451429 2.462477 46.86019-8.070095 2.925714-15.847619 6.485333-23.308191 10.556952zM472.064 314.09981c0 21.699048 17.383619 39.253333 38.814476 39.253333 21.455238 0 38.838857-17.554286 38.838857-39.253333 0-21.674667-17.383619-39.253333-38.838857-39.253334s-38.814476 17.578667-38.814476 39.253334zM270.677333 667.477333c0 21.699048 17.359238 39.253333 38.814477 39.253334 21.455238 0 38.814476-17.554286 38.814476-39.253334 0-21.699048-17.383619-39.253333-38.814476-39.253333-21.455238 0-38.814476 17.554286-38.814477 39.253333zM673.450667 667.477333c0 21.699048 17.383619 39.253333 38.838857 39.253334 21.430857 0 38.814476-17.554286 38.814476-39.253334 0-21.699048-17.383619-39.253333-38.814476-39.253333-21.455238 0-38.838857 17.554286-38.838857 39.253333z" fill="#000000" p-id="75492"></path><path d="M524.190476 682.666667L414.47619 615.082667v-133.022477L524.190476 414.47619l109.714286 67.584v133.022477z" fill="#FFE100" p-id="75493"></path><path d="M524.190476 707.047619L390.095238 627.175619v-157.208381L524.190476 390.095238l134.095238 79.872v157.208381L524.190476 707.047619z m0-28.379429l109.714286-65.340952v-129.487238l-109.714286-65.365333-109.714286 65.340952v129.487238l109.714286 65.365333zM512 243.809524a121.904762 121.904762 0 1 0 0-243.809524 121.904762 121.904762 0 0 0 0 243.809524z m0-24.380953a97.52381 97.52381 0 1 1 0-195.047619 97.52381 97.52381 0 0 1 0 195.047619zM146.285714 877.714286a121.904762 121.904762 0 1 0 0-243.809524 121.904762 121.904762 0 0 0 0 243.809524z m0-24.380953a97.52381 97.52381 0 1 1 0-195.047619 97.52381 97.52381 0 0 1 0 195.047619zM877.714286 877.714286a121.904762 121.904762 0 1 0 0-243.809524 121.904762 121.904762 0 0 0 0 243.809524z m0-24.380953a97.52381 97.52381 0 1 1 0-195.047619 97.52381 97.52381 0 0 1 0 195.047619z" fill="#000000" p-id="75494"></path></svg>