<?xml version="1.0" standalone="no"?><!DOCTYPE svg PUBLIC "-//W3C//DTD SVG 1.1//EN" "http://www.w3.org/Graphics/SVG/1.1/DTD/svg11.dtd"><svg t="1763619734158" class="icon" viewBox="0 0 1024 1024" version="1.1" xmlns="http://www.w3.org/2000/svg" p-id="84624" xmlns:xlink="http://www.w3.org/1999/xlink" width="200" height="200"><path d="M286.632229 681.340343L485.668571 783.213714a7.314286 7.314286 0 0 1 4.213029 6.436572l-0.672914 202.664228c0 4.096-3.774171 7.431314-8.3968 7.431315-1.462857 0-2.925714-0.351086-4.183772-0.994743l-199.007085-101.902629a7.314286 7.314286 0 0 1-4.183772-6.436571l0.643657-202.693486c0-5.705143 7.021714-9.245257 12.580572-6.436571z m454.919314-0.994743c4.622629 0 8.3968 3.306057 8.3968 7.402057l0.643657 202.693486a7.314286 7.314286 0 0 1-4.183771 6.436571l-199.007086 101.902629c-5.588114 2.837943-12.580571-0.702171-12.580572-6.436572l-0.672914-202.693485a7.314286 7.314286 0 0 1 4.213029-6.436572l199.007085-101.873371a9.216 9.216 0 0 1 4.183772-0.994743zM27.882057 548.864l199.007086 101.902629a7.285029 7.285029 0 0 1 4.183771 6.436571l-0.672914 202.664229c0 4.096-3.744914 7.431314-8.367543 7.431314-1.462857 0-2.925714-0.351086-4.183771-0.994743L18.812343 764.401371a7.314286 7.314286 0 0 1-4.183772-6.436571l0.672915-202.664229c0-5.7344 6.992457-9.274514 12.580571-6.436571z m972.419657-0.994743c4.651886 0 8.3968 3.335314 8.3968 7.431314L1009.371429 757.9648a7.314286 7.314286 0 0 1-4.183772 6.436571l-199.036343 101.902629c-5.558857 2.837943-12.580571-0.702171-12.580571-6.436571l-0.643657-202.664229c0-2.6624 1.579886-5.12 4.183771-6.436571l199.007086-101.902629a9.216 9.216 0 0 1 4.183771-0.994743z m-492.7488-16.003657a9.333029 9.333029 0 0 1 8.367543 0l199.036343 101.902629c1.258057 0.643657 2.311314 1.579886 3.042743 2.720914 2.311314 3.510857 0.936229 8.074971-3.042743 10.152228l-197.632 101.814858a9.537829 9.537829 0 0 1-8.3968 0L309.920914 646.582857a7.9872 7.9872 0 0 1-3.042743-2.720914c-2.340571-3.540114-0.965486-8.074971 3.042743-10.152229zM28.672 285.110857l199.007086 101.902629c2.6624 1.345829 4.271543 3.803429 4.183771 6.436571l-0.643657 202.664229c0 4.096-3.774171 7.431314-8.3968 7.431314-1.462857 0-2.925714-0.321829-4.183771-0.994743L19.602286 500.648229a7.314286 7.314286 0 0 1-4.213029-6.436572L16.091429 291.576686c0-5.7344 6.992457-9.274514 12.580571-6.436572z m970.839771-0.994743c4.622629 0 8.3968 3.335314 8.3968 7.431315l0.672915 202.693485a7.314286 7.314286 0 0 1-4.213029 6.436572l-199.007086 101.873371c-5.558857 2.837943-12.580571-0.702171-12.580571-6.436571l-0.643657-202.664229a7.109486 7.109486 0 0 1 4.183771-6.436571l199.007086-101.902629a9.216 9.216 0 0 1 4.183771-0.994743z m-452.169142 0.994743l199.007085 101.902629a7.314286 7.314286 0 0 1 4.183772 6.436571l-0.672915 202.664229c0 4.096-3.744914 7.431314-8.367542 7.431314-1.462857 0-2.925714-0.321829-4.183772-0.994743l-199.036343-101.902628a7.314286 7.314286 0 0 1-4.183771-6.436572l0.672914-202.664228c0-5.7344 6.992457-9.274514 12.580572-6.436572z m-66.501486-0.994743c4.651886 0 8.3968 3.335314 8.3968 7.431315l0.672914 202.693485a7.314286 7.314286 0 0 1-4.183771 6.436572l-199.036343 101.873371c-5.558857 2.837943-12.580571-0.702171-12.580572-6.436571l-0.643657-202.664229a7.314286 7.314286 0 0 1 4.183772-6.436571l199.007085-101.902629a9.216 9.216 0 0 1 4.183772-0.994743zM250.441143 138.561829a9.333029 9.333029 0 0 1 8.3968 0l199.007086 101.873371c1.258057 0.672914 2.311314 1.609143 3.042742 2.720914 2.340571 3.540114 0.965486 8.104229-3.042742 10.152229L260.213029 355.181714a9.333029 9.333029 0 0 1-8.367543 0L52.809143 253.249829a7.9872 7.9872 0 0 1-3.042743-2.691658c-2.340571-3.569371-0.936229-8.104229 3.042743-10.181485z m515.861943 0a9.333029 9.333029 0 0 1 8.3968 0l199.007085 101.873371c1.258057 0.672914 2.340571 1.609143 3.042743 2.720914 2.340571 3.540114 0.965486 8.104229-3.042743 10.152229l-197.602742 101.844114a9.333029 9.333029 0 0 1-8.3968 0l-199.007086-101.902628a7.9872 7.9872 0 0 1-3.042743-2.691658c-2.340571-3.569371-0.965486-8.104229 3.042743-10.181485zM507.552914 6.026971a9.333029 9.333029 0 0 1 8.367543 0l199.007086 101.902629c1.287314 0.643657 2.340571 1.579886 3.072 2.691657 2.311314 3.569371 0.936229 8.104229-3.072 10.152229L517.3248 222.646857a9.157486 9.157486 0 0 1-8.3968 0l-199.007086-101.902628a7.9872 7.9872 0 0 1-3.042743-2.691658c-2.340571-3.540114-0.965486-8.104229 3.042743-10.152228z" fill="#666666" p-id="84625"></path></svg>