<?xml version="1.0" standalone="no"?><!DOCTYPE svg PUBLIC "-//W3C//DTD SVG 1.1//EN" "http://www.w3.org/Graphics/SVG/1.1/DTD/svg11.dtd"><svg t="1763617781662" class="icon" viewBox="0 0 1024 1024" version="1.1" xmlns="http://www.w3.org/2000/svg" p-id="37024" xmlns:xlink="http://www.w3.org/1999/xlink" width="200" height="200"><path d="M607.271723 1022.135922c-20.9043-1.153953-42.119279-2.707351-64.31068-4.748959s-44.072122-4.43828-66.041609-6.879335q-29.914008-3.550624-59.694868-8.166435c-17.753121-2.840499-32.843273-5.725381-45.403606-8.610264a59.029126 59.029126 0 0 1-23.212205-8.610263 75.450763 75.450763 0 0 1-12.604716-42.119279 342.280166 342.280166 0 0 1 3.63939-91.295423 72.699029 72.699029 0 0 1 23.877947-48.821082 156.094313 156.094313 0 0 1 46.113731-26.629681q26.940361-10.119279 54.723994-17.753121a169.231623 169.231623 0 0 0 50.108184-22.1914 117.481276 117.481276 0 0 0 25.875173-21.525659 70.302358 70.302358 0 0 0 12.959778-20.638003 53.259362 53.259362 0 0 0 4.43828-21.525659q0-12.51595-1.020804-24.943134a48.199723 48.199723 0 0 0-12.959778-31.423024q-12.116505-12.338419-25.209432-23.700416a52.549237 52.549237 0 0 1-11.273231-16.776699q-4.43828-10.740638-8.876561-21.925104a880.776699 880.776699 0 0 1-7.988904-27.517337 36.615811 36.615811 0 0 1-11.273232-6.080444 67.772538 67.772538 0 0 1-10.607489-12.027739 71.500693 71.500693 0 0 1-9.586685-22.191401 60.493759 60.493759 0 0 1-3.683773-26.629681 84.859917 84.859917 0 0 1 4.43828-20.638003 57.0319 57.0319 0 0 1 10.60749-18.108183 431.134535 431.134535 0 0 1 3.32871-65.375867 399.711512 399.711512 0 0 1 11.628294-59.339806 185.0319 185.0319 0 0 1 25.520111-56.854368 159.067961 159.067961 0 0 1 34.52982-39.145632 170.829404 170.829404 0 0 1 38.790568-23.700416 160.532594 160.532594 0 0 1 39.944522-11.628294 252.67129 252.67129 0 0 1 38.479889-2.973647 195.816921 195.816921 0 0 1 46.468793 5.636615 226.352288 226.352288 0 0 1 43.40638 15.04577 195.284327 195.284327 0 0 1 36.127601 21.481276 131.32871 131.32871 0 0 1 24.588072 24.144244 189.869626 189.869626 0 0 1 30.846047 60.67129 444.538141 444.538141 0 0 1 13.62552 63.245493 541.78086 541.78086 0 0 1 4.43828 69.680998 33.020804 33.020804 0 0 1 8.876561 11.184466 65.819695 65.819695 0 0 1 4.970873 15.445215 74.429958 74.429958 0 0 1 0.665742 23.256588 95.556172 95.556172 0 0 1-6.968099 28.804439 59.472954 59.472954 0 0 1-11.938974 16.776699 38.9681 38.9681 0 0 1-15.267684 9.453536c-2.52982 9.231623-5.148405 18.418863-7.988904 27.517337a440.23301 440.23301 0 0 1-9.276006 21.969487 60.626907 60.626907 0 0 1-11.938973 16.776699q-12.82663 10.740638-25.209432 21.969487a53.525659 53.525659 0 0 0-12.959778 30.535368 113.309293 113.309293 0 0 0-1.642163 26.230235 79.889043 79.889043 0 0 0 6.968099 26.629681 83.528433 83.528433 0 0 0 18.552012 25.34258 118.235784 118.235784 0 0 0 35.506241 21.525659 375.12344 375.12344 0 0 0 44.160888 15.445215 474.585298 474.585298 0 0 1 46.42441 15.933426 164.216366 164.216366 0 0 1 39.944522 22.191401 72.610264 72.610264 0 0 1 24.898751 36.482663 191.644938 191.644938 0 0 1 5.947296 33.997226c1.331484 13.31484 1.997226 27.117892 1.997226 40.920943a232.699029 232.699029 0 0 1-3.018031 38.701803 76.782247 76.782247 0 0 1-8.255201 27.56172 47.755895 47.755895 0 0 1-23.212205 12.027739 449.375867 449.375867 0 0 1-46.779473 11.628294c-18.907074 3.728155-39.456311 7.012483-62.712899 9.941747s-45.9362 5.325936-68.970874 7.323163q-33.42025 2.929265-66.973647 4.74896c-21.214979 1.153953-39.944521 1.730929-55.389737 1.730929s-34.21914-0.31068-55.167822-1.464633z m-372.815534-166.302358q-33.065187-3.062413-66.041609-6.923717c-19.927878-2.307906-39.944521-5.015257-59.694868-8.166435-17.753121-2.884882-32.843273-5.769764-45.447989-8.610264a59.650485 59.650485 0 0 1-23.212205-8.610263 76.072122 76.072122 0 0 1-12.604716-42.163662 340.638003 340.638003 0 0 1 3.683772-91.25104 72.299584 72.299584 0 0 1 23.833565-48.821082 155.339806 155.339806 0 0 1 46.158114-26.629681q26.895978-10.163662 54.723994-17.75312a169.49792 169.49792 0 0 0 50.0638-22.191401 117.525659 117.525659 0 0 0 25.875174-21.525659A70.302358 70.302358 0 0 0 244.61985 532.59362a53.259362 53.259362 0 0 0 4.438281-21.525659 312.454924 312.454924 0 0 0-1.020805-24.943134 48.288488 48.288488 0 0 0-12.959778-31.423024q-12.116505-12.294036-25.209431-23.656033a53.259362 53.259362 0 0 1-11.273232-16.776699 1027.905687 1027.905687 0 0 1-8.87656-21.969487 846.335645 846.335645 0 0 1-7.944522-27.517337 36.74896 36.74896 0 0 1-11.317614-6.036061 67.63939 67.63939 0 0 1-10.563107-12.072122 71.76699 71.76699 0 0 1-9.631068-22.191401 60.67129 60.67129 0 0 1-3.683772-26.629681 84.815534 84.815534 0 0 1 4.43828-20.682386 56.809986 56.809986 0 0 1 10.607489-18.0638 431.400832 431.400832 0 0 1 3.32871-65.42025 404.9043 404.9043 0 0 1 11.361998-59.339805 184.366158 184.366158 0 0 1 25.520111-56.809986 158.535368 158.535368 0 0 1 34.529819-39.190014A172.249653 172.249653 0 0 1 275.155218 14.646325a163.284327 163.284327 0 0 1 39.944521-11.628294A258.707351 258.707351 0 0 1 353.44648 0a197.325936 197.325936 0 0 1 46.424411 5.814147 225.686546 225.686546 0 0 1 43.450762 15.04577 193.287101 193.287101 0 0 1 36.127601 21.525659 131.106796 131.106796 0 0 1 24.588072 24.099861 190.846047 190.846047 0 0 1 30.846047 60.67129q3.772538 12.82663 6.701803 25.875173a177.531207 177.531207 0 0 0-47.755894 27.295423 174.113731 174.113731 0 0 0-34.52982 39.190014 191.067961 191.067961 0 0 0-25.520111 56.809986 452.393897 452.393897 0 0 0-11.628294 59.384189 396.382802 396.382802 0 0 0-3.32871 65.375867 82.507628 82.507628 0 0 0-10.60749 18.0638 95.156727 95.156727 0 0 0-4.43828 20.682385 64.31068 64.31068 0 0 0 3.63939 26.629681 84.948682 84.948682 0 0 0 9.631068 22.191401 41.631068 41.631068 0 0 0 21.880721 18.063801c2.618585 9.364771 7.944521 27.517337 7.944522 27.517337l8.87656 21.969486a48.821082 48.821082 0 0 0 11.317614 16.776699s13.31484 12.027739 25.209432 23.700417a48.377254 48.377254 0 0 1 12.915395 31.37864 152.809986 152.809986 0 0 1 1.020804 24.987518 45.092926 45.092926 0 0 1-4.43828 21.481276 68.837725 68.837725 0 0 1-12.959778 20.682385 113.176144 113.176144 0 0 1-25.83079 21.525659 161.90846 161.90846 0 0 1-50.108184 22.191401c-18.729542 4.837725-32.532594 9.808599-54.723994 17.753121a165.592233 165.592233 0 0 0-42.518724 23.656033 75.850208 75.850208 0 0 0-27.517337 51.439667c-0.266297 1.331484-2.884882 20.149792-3.683773 27.739251-16.066574-0.887656-32.754508-2.130374-49.975034-3.683773z m54.102635-23.833564a0.576976 0.576976 0 0 1-0.088766 0z" fill="#706FFF" p-id="37025"></path></svg>