<?xml version="1.0" standalone="no"?><!DOCTYPE svg PUBLIC "-//W3C//DTD SVG 1.1//EN" "http://www.w3.org/Graphics/SVG/1.1/DTD/svg11.dtd"><svg t="1763654075645" class="icon" viewBox="0 0 1024 1024" version="1.1" xmlns="http://www.w3.org/2000/svg" p-id="85652" xmlns:xlink="http://www.w3.org/1999/xlink" width="200" height="200"><path d="M627.2 232.96H225.28L346.112 112.64c25.6-25.6 25.6-67.584 0-93.184s-67.584-25.6-93.184 0L21.504 250.88C-5.12 277.504-5.12 320.512 21.504 347.136L252.416 578.56c25.6 25.6 67.584 25.6 93.184 0s25.6-67.584 0-93.184L225.28 364.544h401.92c145.408-2.048 265.216 114.176 267.264 260.096s-114.176 265.216-260.096 267.264H67.072C30.72 891.904 1.024 921.6 1.024 957.952S30.72 1024 67.072 1024h560.128c218.624 0 395.264-177.152 395.776-395.264s-177.152-396.288-395.776-395.776c0-0.512 0-0.512 0 0z" fill="#2c2c2c" p-id="85653"></path></svg>